<svg width="20" height="20" viewBox="0 0 20 20" fill="none" xmlns="http://www.w3.org/2000/svg">
<g clip-path="url(#clip0_120_247)">
<path d="M9.99974 4.5332C9.37014 4.5332 8.75467 4.7199 8.23118 5.06969C7.70768 5.41948 7.29966 5.91665 7.05872 6.49833C6.81779 7.08001 6.75474 7.72007 6.87757 8.33757C7.0004 8.95508 7.30359 9.5223 7.74878 9.96749C8.19398 10.4127 8.7612 10.7159 9.3787 10.8387C9.99621 10.9615 10.6363 10.8985 11.218 10.6576C11.7996 10.4166 12.2968 10.0086 12.6466 9.4851C12.9964 8.96161 13.1831 8.34614 13.1831 7.71654C13.1831 6.87226 12.8477 6.06257 12.2507 5.46558C11.6537 4.86859 10.844 4.5332 9.99974 4.5332ZM9.99974 9.78876C9.58989 9.78876 9.18925 9.66723 8.84848 9.43953C8.5077 9.21183 8.2421 8.88819 8.08526 8.50954C7.92842 8.13089 7.88738 7.71424 7.96734 7.31227C8.04729 6.91029 8.24465 6.54106 8.53446 6.25125C8.82426 5.96145 9.1935 5.76409 9.59547 5.68413C9.99744 5.60417 10.4141 5.64521 10.7927 5.80205C11.1714 5.95889 11.495 6.2245 11.7227 6.56527C11.9504 6.90605 12.072 7.30669 12.072 7.71654C12.0705 8.26516 11.8515 8.79081 11.4631 9.17823C11.0746 9.56564 10.5484 9.78321 9.99974 9.7832V9.78876Z" fill="#3223BE"/>
<path d="M9.99952 1.11133C8.26908 1.11277 6.60951 1.79893 5.3833 3.01994C4.15709 4.24094 3.46388 5.89757 3.45508 7.628C3.45508 10.2224 4.91063 12.3947 5.9773 13.978L6.17174 14.2669C7.23301 15.805 8.37151 17.2884 9.58286 18.7113L10.0051 19.2058L10.4273 18.7113C11.6385 17.2883 12.777 15.8049 13.8384 14.2669L14.0329 13.9724C15.094 12.3891 16.5495 10.2224 16.5495 7.628C16.5407 5.89661 15.8467 4.23914 14.6193 3.01798C13.3919 1.79682 11.7309 1.11131 9.99952 1.11133ZM13.1051 13.3336L12.9051 13.628C11.9495 15.0613 10.6829 16.6669 9.99952 17.4613C9.34397 16.6669 8.04952 15.0613 7.09397 13.628L6.89952 13.3336C5.91619 11.8669 4.56619 9.86133 4.56619 7.60577C4.56619 6.89226 4.70673 6.18573 4.97978 5.52653C5.25283 4.86732 5.65304 4.26836 6.15758 3.76383C6.66211 3.25929 7.26107 2.85908 7.92028 2.58603C8.57948 2.31298 9.28601 2.17244 9.99952 2.17244C10.713 2.17244 11.4196 2.31298 12.0788 2.58603C12.738 2.85908 13.3369 3.25929 13.8415 3.76383C14.346 4.26836 14.7462 4.86732 15.0193 5.52653C15.2923 6.18573 15.4329 6.89226 15.4329 7.60577C15.4329 9.88355 14.0884 11.8891 13.1051 13.3336Z" fill="#3223BE"/>
</g>
<defs>
<clipPath id="clip0_120_247">
<rect width="20" height="20" fill="white"/>
</clipPath>
</defs>
</svg>
