<svg width="236" height="36" viewBox="0 0 236 36" fill="none" xmlns="http://www.w3.org/2000/svg">
<path d="M69.3086 0.00976562H94.7637V7.28966H79.0379V10.6026H86.0403C89.6204 10.6026 92.3671 11.3479 94.2804 12.8289C96.1938 14.3147 97.1554 16.4592 97.1554 19.2673C97.1554 22.186 96.0655 24.4748 93.8859 26.1385C91.7063 27.8022 88.6736 28.6341 84.7878 28.6341H69.3135V0.00976562H69.3086ZM84.1073 21.8879C85.0837 21.8879 85.848 21.6811 86.3904 21.2724C86.9378 20.8637 87.209 20.2771 87.209 19.5126C87.209 18.0412 86.1735 17.3055 84.1073 17.3055H79.033V21.8831H84.1073V21.8879ZM124.282 17.4305C124.282 17.5652 124.238 18.2912 124.154 19.5991H108.221C108.556 20.4454 109.114 21.0897 109.898 21.5417C110.682 21.9937 111.658 22.2149 112.832 22.2149C113.838 22.2149 114.686 22.0899 115.366 21.8446C116.052 21.5994 116.801 21.1763 117.61 20.5752L122.556 25.4413C120.317 27.8407 116.979 29.038 112.536 29.038C109.769 29.038 107.333 28.5427 105.238 27.5474C103.142 26.552 101.52 25.1672 100.375 23.3977C99.2314 21.6282 98.6544 19.6376 98.6544 17.4257C98.6544 15.1898 99.2215 13.1943 100.351 11.4345C101.485 9.67461 103.033 8.30422 105.006 7.32331C106.978 6.3424 109.193 5.85195 111.653 5.85195C113.976 5.85195 116.091 6.30394 118.005 7.2031C119.918 8.10227 121.442 9.42457 122.576 11.17C123.72 12.9155 124.282 15.0023 124.282 17.4305ZM111.747 12.1557C110.771 12.1557 109.957 12.4154 109.316 12.9347C108.675 13.454 108.256 14.1897 108.058 15.1417H115.44C115.243 14.2137 114.824 13.4877 114.183 12.9539C113.532 12.4202 112.723 12.1557 111.747 12.1557ZM152.42 6.26547V28.6341H142.942V13.4636H138.622L138.494 16.3679C138.381 19.2577 138.075 21.6282 137.572 23.4843C137.069 25.3403 136.235 26.7636 135.077 27.7589C133.918 28.7543 132.33 29.2495 130.318 29.2495C129.061 29.2495 127.591 29.0428 125.914 28.6341L126.294 21.1522C126.743 21.2051 127.063 21.234 127.261 21.234C128.405 21.234 129.164 20.8301 129.524 20.0271C129.889 19.2241 130.111 17.8825 130.195 15.9976L130.53 6.26547H152.42ZM168.693 29.0428C166.148 29.0428 163.865 28.5475 161.839 27.5522C159.812 26.5568 158.224 25.1816 157.08 23.4218C155.936 21.6619 155.359 19.6664 155.359 17.4305C155.359 15.1946 155.931 13.1992 157.08 11.4393C158.224 9.67942 159.812 8.30903 161.839 7.32812C163.865 6.34721 166.148 5.85676 168.693 5.85676C171.267 5.85676 173.565 6.34721 175.592 7.32812C177.619 8.30903 179.197 9.67942 180.331 11.4393C181.465 13.1992 182.027 15.1946 182.027 17.4305C182.027 19.6664 181.46 21.6619 180.331 23.4218C179.197 25.1816 177.619 26.5568 175.592 27.5522C173.565 28.5427 171.267 29.0428 168.693 29.0428ZM168.693 21.8446C169.783 21.8446 170.68 21.4551 171.376 20.681C172.076 19.902 172.426 18.8202 172.426 17.4305C172.426 16.0409 172.076 14.9638 171.376 14.1993C170.675 13.4348 169.783 13.0549 168.693 13.0549C167.603 13.0549 166.706 13.4348 166.01 14.1993C165.31 14.9638 164.96 16.0409 164.96 17.4305C164.96 18.8202 165.31 19.9068 166.01 20.681C166.711 21.4551 167.603 21.8446 168.693 21.8446ZM200.273 5.85676C202.285 5.85676 204.139 6.32798 205.83 7.26561C207.522 8.20805 208.863 9.56402 209.854 11.3335C210.845 13.1078 211.343 15.1514 211.343 17.469C211.343 19.7866 210.845 21.8254 209.854 23.5805C208.863 25.3403 207.522 26.6867 205.83 27.6291C204.139 28.5715 202.285 29.038 200.273 29.038C197.728 29.038 195.785 28.3984 194.444 27.1146V35.9716H184.966V6.26547H193.98V8.10708C195.351 6.60686 197.447 5.85676 200.273 5.85676ZM198.004 21.8446C199.094 21.8446 199.992 21.4648 200.687 20.7002C201.387 19.9357 201.737 18.8586 201.737 17.469C201.737 16.0794 201.387 14.9927 200.687 14.2185C199.987 13.4396 199.094 13.0549 198.004 13.0549C196.914 13.0549 196.017 13.4444 195.322 14.2185C194.621 14.9975 194.271 16.0794 194.271 17.469C194.271 18.8586 194.621 19.9357 195.322 20.7002C196.022 21.4648 196.914 21.8446 198.004 21.8446ZM223.588 5.85676C227.612 5.85676 230.689 6.73669 232.814 8.49656C234.939 10.2564 236 12.9587 236 16.6131V28.6341H227.192V25.6865C226.103 27.9224 223.938 29.038 220.693 29.038C218.878 29.038 217.33 28.7302 216.058 28.1196C214.785 27.5041 213.819 26.677 213.163 25.624C212.507 24.5758 212.177 23.3977 212.177 22.085C212.177 19.878 213.045 18.1999 214.775 17.0555C216.511 15.9111 219.135 15.3389 222.661 15.3389H226.477C226.172 13.5934 224.732 12.7231 222.158 12.7231C221.122 12.7231 220.077 12.8818 219.011 13.1943C217.951 13.5069 217.039 13.9348 216.284 14.483L213.267 8.39077C214.578 7.6022 216.166 6.98192 218.025 6.52993C219.889 6.08275 221.743 5.85676 223.588 5.85676ZM223.543 23.4795C224.214 23.4795 224.816 23.3016 225.348 22.9457C225.881 22.5899 226.27 22.061 226.522 21.3494V19.7963H224.174C222.246 19.7963 221.28 20.4213 221.28 21.6763C221.28 22.1956 221.482 22.6236 221.886 22.965C222.296 23.3112 222.848 23.4795 223.543 23.4795Z" fill="#3223BE"/>
<path fill-rule="evenodd" clip-rule="evenodd" d="M29.3853 0.00976562L44.0755 7.16945L58.7657 14.3291V0.00976562L44.0755 7.16945L29.3853 14.3291L14.6951 21.4936L0.00986272 14.3339L14.7001 7.17425L29.3853 0.00976562ZM58.7607 14.3339V28.6581L44.0706 35.8178L29.3804 28.6581L14.6902 35.8178L0 28.6581V0.00976562L14.6902 7.16945L29.3804 14.3291L44.0706 21.4888L58.7607 14.3339Z" fill="#3223BE"/>
<path d="M200.944 33.7553C201.23 33.8274 201.447 33.9476 201.605 34.1063C201.762 34.2698 201.836 34.4717 201.836 34.7121C201.836 34.9573 201.752 35.1737 201.58 35.3661C201.407 35.5584 201.171 35.7075 200.87 35.8132C200.569 35.919 200.229 35.9719 199.854 35.9719C199.538 35.9719 199.228 35.9334 198.927 35.8517C198.626 35.77 198.355 35.6546 198.118 35.5007L198.35 34.9285C198.552 35.0535 198.789 35.1497 199.05 35.2218C199.312 35.2939 199.578 35.3276 199.844 35.3276C200.209 35.3276 200.5 35.2651 200.717 35.1449C200.934 35.0199 201.042 34.8564 201.042 34.6448C201.042 34.4525 200.954 34.3034 200.781 34.1976C200.608 34.0918 200.362 34.0389 200.046 34.0389H199.267V33.4956H199.992C200.283 33.4956 200.51 33.4475 200.677 33.3465C200.845 33.2456 200.929 33.1109 200.929 32.9378C200.929 32.7503 200.83 32.6012 200.633 32.5003C200.436 32.3945 200.174 32.3416 199.839 32.3416C199.415 32.3416 198.966 32.4474 198.498 32.6638L198.291 32.0819C198.809 31.8271 199.356 31.6973 199.923 31.6973C200.268 31.6973 200.574 31.7453 200.85 31.8367C201.121 31.9329 201.338 32.0627 201.491 32.2358C201.649 32.4089 201.723 32.606 201.723 32.8224C201.723 33.0244 201.654 33.2071 201.516 33.3706C201.368 33.5533 201.18 33.6735 200.944 33.7553ZM204.529 31.7261C205.121 31.7261 205.569 31.8656 205.885 32.1493C206.2 32.4329 206.353 32.8513 206.353 33.4139V35.9238H205.624V35.3757C205.495 35.568 205.313 35.7171 205.071 35.818C204.835 35.919 204.549 35.9719 204.223 35.9719C203.745 35.9719 203.365 35.8613 203.079 35.6353C202.793 35.4093 202.65 35.116 202.65 34.7506C202.65 34.3851 202.788 34.0918 203.059 33.8707C203.33 33.6495 203.769 33.5389 204.361 33.5389H205.584V33.3802C205.584 33.058 205.485 32.808 205.293 32.6349C205.101 32.4618 204.815 32.3752 204.44 32.3752C204.189 32.3752 203.942 32.4137 203.7 32.4955C203.459 32.5772 203.257 32.683 203.089 32.8224L202.768 32.2598C202.99 32.0867 203.252 31.9569 203.557 31.8656C203.863 31.7742 204.189 31.7261 204.529 31.7261ZM204.351 35.3901C204.647 35.3901 204.899 35.3276 205.116 35.1978C205.328 35.0679 205.485 34.89 205.584 34.6544V34.0726H204.396C203.74 34.0726 203.414 34.289 203.414 34.7169C203.414 34.9285 203.498 35.092 203.666 35.2122C203.829 35.3276 204.06 35.3901 204.351 35.3901ZM211.694 31.7646V35.919H210.92V32.4233H208.513V35.919H207.739V31.7646H211.694ZM216.596 31.7646V35.919H215.821V34.2409C215.358 34.4525 214.904 34.5534 214.446 34.5534C213.913 34.5534 213.504 34.4332 213.213 34.1928C212.922 33.9524 212.779 33.5918 212.779 33.1109V31.7598H213.553V33.0628C213.553 33.3513 213.647 33.5677 213.829 33.712C214.016 33.8562 214.273 33.9332 214.603 33.9332C214.978 33.9332 215.382 33.8418 215.816 33.6591V31.7598H216.596V31.7646ZM219.609 31.7261C220.2 31.7261 220.649 31.8656 220.965 32.1493C221.28 32.4329 221.433 32.8513 221.433 33.4139V35.9238H220.703V35.3757C220.575 35.568 220.393 35.7171 220.151 35.818C219.914 35.919 219.628 35.9719 219.303 35.9719C218.824 35.9719 218.445 35.8613 218.159 35.6353C217.873 35.4093 217.73 35.116 217.73 34.7506C217.73 34.3851 217.868 34.0918 218.139 33.8707C218.41 33.6495 218.849 33.5389 219.441 33.5389H220.664V33.3802C220.664 33.058 220.565 32.808 220.373 32.6349C220.181 32.4618 219.895 32.3752 219.52 32.3752C219.268 32.3752 219.022 32.4137 218.78 32.4955C218.538 32.5772 218.336 32.683 218.169 32.8224L217.848 32.2598C218.07 32.0867 218.331 31.9569 218.637 31.8656C218.943 31.7742 219.268 31.7261 219.609 31.7261ZM219.436 35.3901C219.732 35.3901 219.983 35.3276 220.2 35.1978C220.412 35.0679 220.57 34.89 220.669 34.6544V34.0726H219.48C218.824 34.0726 218.499 34.289 218.499 34.7169C218.499 34.9285 218.583 35.092 218.751 35.2122C218.908 35.3276 219.14 35.3901 219.436 35.3901ZM224.688 35.9671C224.254 35.9671 223.864 35.8757 223.524 35.693C223.184 35.5103 222.917 35.2555 222.725 34.9381C222.533 34.616 222.434 34.2505 222.434 33.8418C222.434 33.4331 222.533 33.0677 222.725 32.7455C222.917 32.4233 223.184 32.1733 223.524 31.9906C223.864 31.8079 224.254 31.7213 224.688 31.7213C225.072 31.7213 225.418 31.7982 225.723 31.9473C226.024 32.1012 226.261 32.3175 226.428 32.606L225.842 32.9763C225.708 32.7792 225.541 32.6301 225.344 32.5291C225.146 32.4281 224.924 32.3801 224.683 32.3801C224.402 32.3801 224.155 32.4378 223.933 32.5628C223.711 32.683 223.539 32.8561 223.411 33.0773C223.282 33.2985 223.223 33.5533 223.223 33.8418C223.223 34.1351 223.287 34.39 223.411 34.616C223.539 34.8371 223.711 35.0102 223.933 35.1304C224.155 35.2507 224.407 35.3132 224.683 35.3132C224.924 35.3132 225.146 35.2651 225.344 35.1641C225.541 35.0631 225.708 34.9141 225.842 34.7169L226.428 35.0776C226.261 35.3661 226.029 35.5872 225.723 35.7411C225.418 35.8902 225.072 35.9671 224.688 35.9671ZM230.541 32.4233H228.983V35.919H228.209V32.4233H226.65V31.7646H230.541V32.4233ZM231.33 31.7646H232.104V34.7939L234.718 31.7646H235.418V35.919H234.644V32.8897L232.04 35.919H231.33V31.7646Z" fill="#3223BE"/>
</svg>
